<?xml version="1.0" encoding="UTF-8" standalone="no"?>
<!DOCTYPE svg PUBLIC "-//W3C//DTD SVG 1.1//EN" "http://www.w3.org/Graphics/SVG/1.1/DTD/svg11.dtd">
<svg width="100%" height="100%" viewBox="0 0 512 512" version="1.1" xmlns="http://www.w3.org/2000/svg" xmlns:xlink="http://www.w3.org/1999/xlink" xml:space="preserve" xmlns:serif="http://www.serif.com/" style="fill-rule:evenodd;clip-rule:evenodd;stroke-linejoin:round;stroke-miterlimit:2;">
    <g transform="matrix(1,0,0,0.994175,-1,-0.994175)">
        <path d="M513,25.028C513,18.656 510.483,12.544 506.003,8.038C501.523,3.532 495.447,1 489.112,1L24.888,1C18.553,1 12.477,3.532 7.997,8.038C3.517,12.544 1,18.656 1,25.028L1,491.972C1,498.344 3.517,504.456 7.997,508.962C12.477,513.468 18.553,516 24.888,516L489.112,516C495.447,516 501.523,513.468 506.003,508.962C510.483,504.456 513,498.344 513,491.972L513,25.028Z"/>
    </g>
    <g transform="matrix(1.68284,0,0,1.68284,-176.692,-232.608)">
        <path id="path21" d="M255,382.886C255,384.64 253.621,386.084 251.868,386.165C246.256,386.417 241.288,387.157 240.305,388.342C237.906,391.232 239.341,393.237 245.711,395.899C249.835,397.622 250.863,398.825 250.483,401.486L250.483,401.486C249.938,405.312 247.954,405.827 239.88,404.238C229.833,402.26 227.39,398.909 219.053,375.658C215.519,365.804 213.376,361.452 213.328,364.033C213.285,366.302 212.849,368.158 212.36,368.158C211.87,368.158 204.65,361.725 196.316,353.863C187.981,346 179.55,339.163 177.579,338.668C172.247,337.33 169.366,341.219 168.569,350.832C167.73,360.949 165.306,361.61 161.353,352.801C157.646,344.543 157.587,318.273 161.253,308.472C164.152,300.719 161.892,301.538 157.698,309.76C156.043,313.004 153.932,315.658 153.006,315.658C150.581,315.658 152.553,299.065 156.331,287.686L159.392,278.465L156.432,266.686C151.724,247.952 149.713,227.05 150.765,207.781C152.003,185.098 154.184,177.783 159.74,177.681C160.422,177.668 195.601,210.081 198.78,212.037L204.561,215.594L222.03,213.124C231.172,211.832 240.03,211.072 248.878,210.846C250.488,210.811 252.045,211.426 253.196,212.553C254.348,213.679 254.997,215.222 254.997,216.833C255,244.925 255,362.018 255,382.886ZM216.664,321.519C229.438,327.842 244.414,323.421 233.794,316.462C231.122,314.712 229.17,314.533 225.186,315.676C214.863,318.636 204.25,311.339 204.25,301.28C204.25,298.545 203.294,295.767 202.126,295.107C200.958,294.447 197.827,291.208 195.167,287.908C195.167,287.908 193.761,286.163 192.465,284.556C192.205,284.233 191.762,284.125 191.383,284.293C191.004,284.46 190.785,284.86 190.848,285.269C191.035,286.485 191.201,287.565 191.201,287.565C193.182,300.433 204.466,315.481 216.664,321.519ZM164.126,248.657L164.126,248.657C165.733,252.583 167.114,251.59 175.002,240.844L182.022,231.28L173.725,215.344C169.161,206.579 164.881,199.745 164.214,200.158C162.684,201.103 162.605,244.942 164.126,248.657Z" style="fill:rgb(255,233,157);fill-rule:nonzero;"/>
    </g>
    <g id="path3773" transform="matrix(1.87415,0,0,1.87415,798.116,1726.97)">
        <path d="M-276.04,-740.269C-264.191,-744.818 -256.327,-756.261 -256.327,-768.953C-256.327,-784.001 -267.383,-796.67 -281.749,-799.213C-284.817,-799.761 -287.051,-802.429 -287.051,-805.546C-287.052,-816.361 -287.052,-839.371 -287.052,-850.763C-287.052,-852.556 -286.303,-854.269 -284.987,-855.486C-283.671,-856.704 -281.906,-857.317 -280.118,-857.178C-234.763,-853.582 -198.564,-815.163 -198.564,-768.952C-198.564,-732.397 -221.216,-699.44 -255.344,-686.341L-276.04,-740.269Z" style="fill:rgb(255,233,157);fill-rule:nonzero;"/>
    </g>
</svg>
