<?xml version="1.0" encoding="UTF-8" standalone="no"?>
<!DOCTYPE svg PUBLIC "-//W3C//DTD SVG 1.1//EN" "http://www.w3.org/Graphics/SVG/1.1/DTD/svg11.dtd">
<svg width="100%" height="100%" viewBox="0 0 512 512" version="1.1" xmlns="http://www.w3.org/2000/svg" xmlns:xlink="http://www.w3.org/1999/xlink" xml:space="preserve" xmlns:serif="http://www.serif.com/" style="fill-rule:evenodd;clip-rule:evenodd;stroke-linejoin:round;stroke-miterlimit:2;">
    <g transform="matrix(1,0,0,0.994175,-1,-0.994175)">
        <path d="M513,25.028C513,18.656 510.483,12.544 506.003,8.038C501.523,3.532 495.447,1 489.112,1L24.888,1C18.553,1 12.477,3.532 7.997,8.038C3.517,12.544 1,18.656 1,25.028L1,491.972C1,498.344 3.517,504.456 7.997,508.962C12.477,513.468 18.553,516 24.888,516L489.112,516C495.447,516 501.523,513.468 506.003,508.962C510.483,504.456 513,498.344 513,491.972L513,25.028Z"/>
    </g>
    <g transform="matrix(1.68284,0,0,1.68284,-159.864,-210.731)">
        <g transform="matrix(0.952594,0,0,0.952594,-4.20237,3.37099)">
            <g transform="matrix(0.0161806,0.00420089,0.0042909,-0.0165273,230.074,322.778)">
                <path d="M3610,3532L3565,3405L3355,3399L3310,3525C3279,3610 3260,3650 3250,3650C3242,3649 3195,3641 3145,3632L3055,3615L3052,3474L3049,3332L2958,3301C2899,3282 2862,3274 2855,3280C2849,3285 2810,3332 2769,3385C2719,3450 2690,3479 2678,3476C2669,3474 2626,3451 2582,3425L2503,3378L2541,3261C2562,3197 2581,3138 2584,3130C2588,3120 2566,3096 2513,3055C2471,3022 2434,2996 2430,2997C2426,2998 2373,3029 2310,3067L2197,3134L2142,3075C2046,2970 2046,2986 2139,2865C2184,2807 2220,2758 2220,2756C2220,2750 2131,2607 2122,2598C2117,2593 2054,2602 1980,2620C1907,2637 1846,2649 1844,2648C1833,2635 1770,2465 1773,2455C1777,2446 1870,2380 1989,2302C1992,2301 1984,2257 1971,2206C1945,2098 1964,2109 1778,2089L1672,2077L1664,1981C1659,1928 1655,1881 1655,1875C1655,1870 1711,1849 1780,1830C1849,1810 1911,1792 1919,1789C1929,1786 1934,1758 1937,1690L1942,1595L1820,1541C1754,1511 1697,1483 1694,1479C1690,1472 1737,1280 1745,1272C1747,1270 1810,1273 1886,1279C1962,1285 2025,1289 2026,1287C2028,1286 2047,1246 2068,1200L2107,1115L1897,915L1955,827C1987,779 2018,740 2024,740C2030,740 2091,765 2159,795L2284,850L2346,783C2381,745 2409,712 2410,709C2410,706 2381,649 2345,582C2309,514 2280,456 2280,451C2280,444 2400,349 2438,326C2447,321 2483,348 2548,407C2601,456 2651,500 2658,504C2669,511 2813,439 2824,422C2826,418 2819,357 2809,285C2798,213 2791,149 2792,141C2795,130 2960,60 2985,60C2991,60 3021,111 3053,173C3138,337 3122,324 3229,305C3313,289 3319,286 3324,262C3327,247 3339,182 3351,117L3373,0L3586,0L3613,142C3627,219 3644,286 3650,290C3662,298 3820,323 3825,318C3827,316 3859,261 3895,195C3932,129 3966,71 3970,66C3978,58 4129,101 4160,120C4170,126 4168,157 4150,268C4138,346 4130,415 4133,423C4138,437 4269,510 4290,510C4296,510 4349,467 4407,415C4466,363 4517,320 4522,320C4526,320 4566,348 4609,382L4689,444L4665,484C4652,507 4619,567 4591,619L4542,714L4602,782C4636,819 4669,850 4676,850C4684,850 4749,825 4820,794C4892,763 4953,739 4955,741C4967,753 5060,902 5060,909C5060,914 5013,963 4955,1019C4897,1074 4850,1123 4850,1127C4850,1132 4866,1172 4887,1218L4924,1301L5009,1295C5056,1292 5125,1287 5161,1284L5228,1278L5250,1374C5262,1427 5270,1476 5267,1483C5264,1490 5205,1520 5135,1550C5065,1580 5006,1610 5004,1615C5002,1621 5004,1665 5008,1715L5015,1804L5090,1826C5131,1839 5197,1858 5235,1869L5306,1890L5295,1989C5290,2044 5283,2091 5280,2093C5277,2096 5212,2104 5135,2110C5058,2117 4993,2124 4992,2126C4990,2127 4977,2170 4964,2222C4941,2310 4941,2316 4958,2328C4967,2335 5022,2373 5078,2411C5196,2492 5192,2479 5136,2602L5100,2678L4968,2644C4895,2625 4828,2610 4820,2610C4807,2610 4710,2756 4710,2775C4710,2780 4748,2834 4795,2896C4842,2959 4880,3014 4880,3019C4880,3036 4738,3160 4726,3153C4720,3150 4665,3114 4603,3074L4491,3001L4415,3062C4374,3095 4340,3127 4340,3133C4340,3139 4358,3202 4381,3273C4403,3344 4420,3403 4418,3405C4416,3406 4374,3428 4324,3453L4233,3499L4159,3403C4118,3351 4080,3302 4073,3293C4063,3280 4049,3282 3961,3311L3860,3344L3860,3487C3860,3566 3857,3630 3853,3630C3845,3630 3745,3645 3685,3655L3655,3660L3610,3532ZM3725,2841C4354,2684 4687,2007 4430,1408C4331,1177 4129,971 3903,869C3681,769 3409,754 3175,827C2676,983 2367,1505 2461,2030C2485,2164 2561,2336 2643,2446C2701,2522 2828,2644 2900,2691C3021,2771 3164,2829 3303,2856C3403,2875 3620,2867 3725,2841Z" style="fill:rgb(255,233,157);fill-rule:nonzero;"/>
            </g>
            <g transform="matrix(0.0132363,-0.00159939,-0.00159939,-0.0132363,171.122,412.213)">
                <path d="M8752,3640C8707,3630 8663,3619 8655,3616C8644,3612 8640,3582 8638,3474L8635,3338L8556,3309C8512,3293 8470,3280 8463,3280C8452,3280 8399,3342 8309,3460L8284,3494L8192,3441C8141,3412 8100,3384 8100,3379C8100,3374 8118,3312 8141,3243C8164,3172 8178,3115 8173,3111C8168,3108 8133,3083 8096,3055C8058,3028 8024,3006 8018,3008C8013,3009 7963,3039 7906,3075C7849,3111 7799,3140 7794,3140C7786,3140 7713,3061 7668,3005C7651,2984 7653,2980 7735,2875C7781,2815 7816,2762 7813,2756C7809,2750 7784,2712 7758,2672C7722,2619 7704,2600 7692,2604C7596,2630 7446,2660 7440,2653C7430,2641 7357,2460 7361,2457C7363,2455 7408,2426 7460,2392C7512,2358 7563,2324 7572,2317C7590,2303 7591,2310 7549,2149L7540,2114L7272,2088L7266,2056C7264,2039 7258,1991 7254,1949L7248,1872L7301,1857C7331,1848 7392,1832 7437,1819C7530,1794 7528,1798 7531,1680L7533,1605L7408,1545L7282,1485L7308,1381L7334,1278L7454,1285C7521,1289 7585,1293 7598,1294C7617,1295 7627,1282 7660,1210L7698,1125L7488,925L7546,840C7577,793 7605,753 7607,751C7608,749 7667,770 7737,798C7808,827 7870,850 7875,850C7881,850 7911,821 7943,785L8001,720L7935,592C7899,521 7870,461 7870,458C7870,451 8027,330 8036,330C8040,330 8076,360 8118,397C8159,435 8208,478 8226,493L8260,521L8337,479C8380,456 8416,436 8417,436C8418,435 8410,368 8399,286C8388,204 8381,136 8382,135C8384,134 8428,119 8480,102C8592,65 8573,53 8662,217C8730,343 8719,336 8835,316L8905,304L8965,10L9179,10L9186,48C9189,68 9202,134 9214,195L9235,305L9305,317C9423,337 9410,345 9490,200C9529,128 9563,70 9566,70C9572,70 9754,132 9759,136C9761,138 9752,207 9740,290C9728,373 9719,442 9721,444C9723,445 9760,466 9803,489L9881,531L9933,486C9962,462 10014,415 10050,382L10114,323L10196,389L10279,454L10209,586C10171,658 10140,721 10140,726C10140,732 10168,766 10203,803L10265,871L10385,817C10561,738 10539,735 10604,837L10661,925L10550,1030L10440,1135L10477,1223L10515,1312L10653,1305C10728,1301 10797,1297 10806,1296C10822,1295 10825,1304 10865,1476C10869,1495 10854,1505 10729,1561C10605,1617 10589,1626 10594,1645C10597,1656 10600,1697 10600,1736L10600,1807L10747,1849C10828,1872 10895,1892 10896,1893C10901,1898 10878,2086 10872,2092C10868,2095 10802,2104 10725,2112L10585,2125L10573,2163C10566,2184 10554,2228 10547,2260L10533,2319L10656,2401C10724,2446 10780,2485 10780,2488C10780,2490 10765,2525 10746,2564C10728,2604 10710,2646 10706,2657C10700,2677 10697,2676 10562,2644C10487,2625 10420,2610 10414,2610C10404,2610 10300,2761 10300,2776C10300,2778 10338,2831 10385,2894C10432,2956 10470,3011 10470,3016C10470,3021 10439,3056 10401,3094L10332,3163L10293,3139C10272,3127 10222,3094 10182,3068C10143,3041 10103,3017 10096,3014C10083,3009 9951,3104 9935,3130C9932,3135 9947,3196 9970,3266C9992,3336 10010,3396 10010,3401C10010,3408 9840,3500 9827,3500C9825,3500 9785,3450 9739,3390C9644,3265 9660,3270 9528,3321L9451,3351L9445,3635L9345,3648C9290,3655 9244,3658 9242,3653C9240,3649 9220,3591 9197,3525L9155,3405L9054,3402L8952,3399L8904,3530C8877,3601 8851,3659 8845,3659C8840,3658 8798,3650 8752,3640ZM9205,2116C9272,2086 9326,2031 9359,1961C9380,1915 9385,1891 9385,1825C9385,1730 9363,1675 9300,1606C9205,1503 9058,1475 8936,1535C8871,1568 8813,1628 8778,1698C8759,1736 8755,1761 8755,1830C8755,1903 8759,1922 8783,1967C8866,2127 9045,2190 9205,2116Z" style="fill:rgb(255,233,157);fill-rule:nonzero;"/>
            </g>
            <g transform="matrix(0.0122699,-0.000254843,-0.000254843,-0.0122699,242.524,214.378)">
                <path d="M8752,3640C8707,3630 8663,3619 8655,3616C8644,3612 8640,3582 8638,3474L8635,3338L8556,3309C8512,3293 8470,3280 8463,3280C8452,3280 8399,3342 8309,3460L8284,3494L8192,3441C8141,3412 8100,3384 8100,3379C8100,3374 8118,3312 8141,3243C8164,3172 8178,3115 8173,3111C8168,3108 8133,3083 8096,3055C8058,3028 8024,3006 8018,3008C8013,3009 7963,3039 7906,3075C7849,3111 7799,3140 7794,3140C7786,3140 7713,3061 7668,3005C7651,2984 7653,2980 7735,2875C7781,2815 7816,2762 7813,2756C7809,2750 7784,2712 7758,2672C7722,2619 7704,2600 7692,2604C7596,2630 7446,2660 7440,2653C7430,2641 7357,2460 7361,2457C7363,2455 7408,2426 7460,2392C7512,2358 7563,2324 7572,2317C7590,2303 7591,2310 7549,2149L7540,2114L7272,2088L7266,2056C7264,2039 7258,1991 7254,1949L7248,1872L7301,1857C7331,1848 7392,1832 7437,1819C7530,1794 7528,1798 7531,1680L7533,1605L7408,1545L7282,1485L7308,1381L7334,1278L7454,1285C7521,1289 7585,1293 7598,1294C7617,1295 7627,1282 7660,1210L7698,1125L7488,925L7546,840C7577,793 7605,753 7607,751C7608,749 7667,770 7737,798C7808,827 7870,850 7875,850C7881,850 7911,821 7943,785L8001,720L7935,592C7899,521 7870,461 7870,458C7870,451 8027,330 8036,330C8040,330 8076,360 8118,397C8159,435 8208,478 8226,493L8260,521L8337,479C8380,456 8416,436 8417,436C8418,435 8410,368 8399,286C8388,204 8381,136 8382,135C8384,134 8428,119 8480,102C8592,65 8573,53 8662,217C8730,343 8719,336 8835,316L8905,304L8965,10L9179,10L9186,48C9189,68 9202,134 9214,195L9235,305L9305,317C9423,337 9410,345 9490,200C9529,128 9563,70 9566,70C9572,70 9754,132 9759,136C9761,138 9752,207 9740,290C9728,373 9719,442 9721,444C9723,445 9760,466 9803,489L9881,531L9933,486C9962,462 10014,415 10050,382L10114,323L10196,389L10279,454L10209,586C10171,658 10140,721 10140,726C10140,732 10168,766 10203,803L10265,871L10385,817C10561,738 10539,735 10604,837L10661,925L10550,1030L10440,1135L10477,1223L10515,1312L10653,1305C10728,1301 10797,1297 10806,1296C10822,1295 10825,1304 10865,1476C10869,1495 10854,1505 10729,1561C10605,1617 10589,1626 10594,1645C10597,1656 10600,1697 10600,1736L10600,1807L10747,1849C10828,1872 10895,1892 10896,1893C10901,1898 10878,2086 10872,2092C10868,2095 10802,2104 10725,2112L10585,2125L10573,2163C10566,2184 10554,2228 10547,2260L10533,2319L10656,2401C10724,2446 10780,2485 10780,2488C10780,2490 10765,2525 10746,2564C10728,2604 10710,2646 10706,2657C10700,2677 10697,2676 10562,2644C10487,2625 10420,2610 10414,2610C10404,2610 10300,2761 10300,2776C10300,2778 10338,2831 10385,2894C10432,2956 10470,3011 10470,3016C10470,3021 10439,3056 10401,3094L10332,3163L10293,3139C10272,3127 10222,3094 10182,3068C10143,3041 10103,3017 10096,3014C10083,3009 9951,3104 9935,3130C9932,3135 9947,3196 9970,3266C9992,3336 10010,3396 10010,3401C10010,3408 9840,3500 9827,3500C9825,3500 9785,3450 9739,3390C9644,3265 9660,3270 9528,3321L9451,3351L9445,3635L9345,3648C9290,3655 9244,3658 9242,3653C9240,3649 9220,3591 9197,3525L9155,3405L9054,3402L8952,3399L8904,3530C8877,3601 8851,3659 8845,3659C8840,3658 8798,3650 8752,3640ZM9205,2116C9272,2086 9326,2031 9359,1961C9380,1915 9385,1891 9385,1825C9385,1730 9363,1675 9300,1606C9205,1503 9058,1475 8936,1535C8871,1568 8813,1628 8778,1698C8759,1736 8755,1761 8755,1830C8755,1903 8759,1922 8783,1967C8866,2127 9045,2190 9205,2116Z" style="fill:rgb(255,233,157);fill-rule:nonzero;"/>
            </g>
            <g transform="matrix(0.013403,-0.00264371,-0.00264371,-0.013403,280.392,342.772)">
                <path d="M6529,7670L6485,7539L6381,7542L6276,7545L6231,7669L6186,7792L6140,7786C6115,7783 6067,7775 6033,7769L5971,7758L5968,7618L5965,7477L5873,7444L5782,7411L5695,7520C5647,7581 5605,7628 5601,7626C5480,7558 5430,7525 5430,7513C5430,7504 5446,7448 5465,7389C5484,7329 5500,7274 5500,7266C5500,7252 5365,7140 5348,7140C5343,7140 5289,7172 5228,7211C5167,7250 5114,7278 5111,7273C5107,7269 5073,7231 5036,7188C4999,7146 4973,7109 4978,7106C4983,7103 5022,7055 5065,7000L5141,6900L5088,6815C5052,6757 5030,6732 5020,6735C5004,6740 4773,6790 4766,6790C4764,6790 4751,6762 4737,6728C4723,6693 4705,6649 4696,6628L4680,6592L4793,6519C4854,6480 4907,6446 4909,6444C4914,6440 4879,6275 4871,6262C4867,6256 4804,6244 4730,6234C4656,6225 4594,6216 4592,6215C4590,6214 4586,6165 4583,6107L4577,6002L4621,5990C4737,5960 4843,5930 4845,5928C4846,5926 4850,5883 4854,5832L4861,5739L4768,5696C4717,5672 4658,5645 4638,5637L4601,5621L4614,5573C4622,5547 4636,5499 4645,5466L4661,5407L4738,5414C4780,5417 4844,5423 4880,5426L4945,5432L4984,5344L5024,5257L4917,5158L4810,5058L4871,4969C4904,4920 4933,4880 4936,4880C4939,4880 4998,4905 5066,4935C5135,4965 5194,4989 5198,4989C5202,4988 5234,4957 5269,4919C5316,4869 5330,4847 5323,4838C5317,4831 5285,4773 5251,4708L5190,4592L5275,4525C5374,4448 5351,4442 5495,4575L5582,4654L5667,4611C5740,4574 5751,4564 5746,4546C5730,4480 5708,4278 5716,4271C5721,4266 5766,4249 5817,4232L5909,4202L6045,4462L6104,4455C6136,4452 6179,4443 6199,4437L6235,4425L6264,4283L6293,4140L6507,4140L6529,4278C6542,4353 6553,4420 6555,4426C6558,4435 6692,4460 6737,4460C6743,4460 6779,4403 6817,4334C6854,4265 6890,4206 6896,4203C6909,4198 7078,4258 7086,4271C7089,4276 7082,4344 7070,4422C7057,4506 7052,4566 7058,4572C7063,4577 7100,4598 7140,4619L7213,4658L7324,4559C7385,4505 7438,4460 7441,4460C7446,4460 7593,4570 7608,4584C7609,4586 7577,4647 7536,4721L7461,4854L7514,4914C7543,4947 7574,4978 7582,4984C7594,4991 7633,4980 7737,4938C7813,4907 7877,4883 7881,4885C7884,4888 7910,4927 7939,4974L7991,5059L7923,5123C7886,5158 7835,5204 7811,5226L7767,5266L7849,5440L8002,5437L8155,5435L8177,5515C8189,5559 8199,5602 8199,5611C8200,5622 8160,5645 8068,5687L7935,5746L7929,5948L7982,5963C8011,5972 8079,5991 8133,6005C8224,6031 8230,6034 8230,6059C8229,6089 8211,6232 8207,6236C8206,6237 8139,6244 8059,6251L7912,6263L7891,6349C7880,6397 7870,6442 7870,6450C7870,6458 7917,6496 7973,6533C8029,6571 8083,6607 8093,6614C8109,6626 8107,6633 8068,6719C8040,6781 8022,6810 8010,6810C8001,6810 7948,6799 7894,6786C7717,6743 7741,6738 7684,6827C7657,6869 7634,6908 7632,6912C7630,6916 7670,6974 7721,7040L7813,7161L7740,7228C7700,7265 7663,7296 7659,7298C7655,7300 7604,7269 7545,7230C7487,7191 7433,7157 7425,7154C7417,7150 7380,7174 7335,7210C7294,7245 7260,7273 7260,7274C7260,7274 7280,7337 7304,7413L7348,7551L7271,7589C7151,7650 7165,7653 7080,7543C7039,7490 7001,7441 6995,7433C6987,7422 6967,7426 6885,7453L6785,7487L6782,7628C6781,7706 6776,7770 6772,7770C6765,7770 6660,7786 6604,7795L6573,7800L6529,7670ZM6530,7300C6616,7286 6648,7273 6688,7236C6743,7185 6752,7096 6715,6967C6669,6810 6528,6660 6425,6660C6336,6660 6258,6741 6166,6929C6123,7017 6115,7044 6112,7102C6108,7162 6111,7175 6133,7209C6187,7291 6350,7328 6530,7300ZM5585,6833C5601,6824 5645,6787 5681,6751C5753,6678 5824,6553 5835,6477C5849,6385 5801,6293 5721,6256C5681,6238 5657,6235 5535,6235C5359,6235 5305,6248 5244,6304C5208,6336 5195,6357 5185,6398C5168,6463 5180,6517 5233,6612C5354,6828 5462,6896 5585,6833ZM7413,6807C7464,6785 7518,6716 7576,6597C7636,6474 7650,6407 7630,6346C7595,6238 7493,6190 7299,6190C7090,6190 6996,6252 6997,6390C6999,6517 7142,6755 7245,6801C7292,6823 7368,6825 7413,6807ZM6514,6269C6587,6242 6662,6173 6697,6102C6751,5991 6725,5843 6632,5747C6518,5629 6331,5617 6201,5720C6128,5778 6086,5869 6085,5969C6085,6032 6090,6055 6113,6102C6187,6253 6362,6326 6514,6269ZM5673,5730C5833,5670 5852,5529 5729,5318C5645,5174 5574,5120 5470,5120C5365,5120 5320,5160 5230,5334C5185,5422 5175,5450 5172,5504C5167,5588 5182,5632 5233,5675C5294,5728 5372,5749 5507,5749C5596,5750 5630,5746 5673,5730ZM7370,5699C7456,5689 7528,5663 7564,5632C7589,5609 7630,5521 7630,5488C7630,5443 7601,5370 7547,5280C7437,5098 7349,5046 7235,5099C7109,5157 6970,5364 6970,5493C6971,5593 7027,5667 7120,5689C7213,5711 7262,5713 7370,5699ZM6471,5247C6583,5188 6719,4909 6696,4787C6687,4737 6641,4687 6578,4659C6530,4637 6511,4635 6380,4635C6244,4635 6232,4637 6178,4662C6095,4701 6065,4750 6066,4844C6068,4924 6092,4997 6148,5094C6237,5248 6359,5306 6471,5247Z" style="fill:rgb(255,233,157);fill-rule:nonzero;"/>
            </g>
            <g transform="matrix(0.986609,-0.163103,0.163103,0.986609,-64.4103,-16.2558)">
                <g transform="matrix(0.0144476,0.00749463,0.00749463,-0.0144476,109.731,309.72)">
                    <path d="M10643,7777L10541,7758L10535,7476L10443,7443L10351,7411L10264,7520L10177,7630L10141,7609C10121,7597 10080,7574 10050,7557C10020,7540 9994,7525 9992,7524C9990,7523 10007,7465 10029,7395C10052,7325 10070,7262 10069,7256C10069,7250 10036,7219 9995,7188L9922,7131L9810,7201C9749,7239 9695,7271 9691,7273C9686,7274 9651,7239 9612,7196L9542,7117L9708,6893L9654,6811C9608,6742 9596,6731 9577,6735C9565,6738 9506,6751 9446,6765C9386,6779 9336,6789 9334,6787C9329,6783 9250,6598 9250,6593C9250,6591 9302,6555 9366,6514C9431,6471 9480,6433 9477,6426C9474,6420 9465,6379 9455,6335C9445,6291 9436,6254 9435,6252C9433,6249 9195,6220 9173,6220C9159,6220 9152,6184 9147,6078L9143,6002L9204,5985C9238,5976 9297,5960 9337,5948C9418,5925 9413,5931 9425,5808L9431,5741L9308,5679C9240,5645 9183,5616 9181,5614C9176,5609 9221,5416 9229,5409C9232,5406 9296,5409 9370,5415C9444,5422 9508,5426 9511,5424C9514,5422 9533,5383 9554,5337L9591,5253L9533,5199C9502,5169 9453,5124 9426,5099L9377,5053L9436,4967C9468,4919 9500,4880 9507,4880C9514,4880 9572,4903 9637,4930C9702,4958 9759,4980 9765,4980C9770,4980 9803,4949 9836,4912L9897,4844L9827,4716C9789,4645 9762,4585 9767,4581C9772,4578 9811,4549 9854,4517L9932,4458L9964,4487C9981,4502 10027,4545 10066,4582C10106,4620 10144,4650 10151,4650C10159,4650 10198,4632 10238,4610C10321,4563 10317,4578 10291,4400C10280,4331 10275,4272 10279,4269C10282,4265 10323,4250 10370,4235C10417,4220 10460,4205 10466,4203C10473,4201 10507,4256 10545,4327C10581,4397 10613,4456 10615,4458C10617,4460 10659,4456 10709,4450L10799,4437L10810,4386C10815,4358 10828,4292 10838,4240L10855,4145L10962,4142C11057,4140 11069,4141 11074,4157C11077,4167 11089,4231 11100,4299C11112,4368 11123,4427 11126,4431C11128,4435 11163,4443 11203,4450C11242,4456 11282,4464 11291,4466C11304,4470 11325,4438 11381,4335C11421,4261 11457,4200 11460,4200C11463,4200 11508,4215 11560,4234C11637,4261 11655,4272 11653,4287C11651,4297 11641,4365 11630,4439C11619,4512 11611,4574 11612,4575C11614,4576 11651,4596 11694,4619C11786,4668 11762,4677 11909,4543C11959,4497 12004,4460 12009,4460C12019,4460 12163,4578 12168,4590C12169,4594 12155,4625 12136,4658C12117,4692 12084,4752 12064,4791L12027,4861L12094,4929L12162,4997L12303,4939L12444,4882L12497,4961C12526,5004 12550,5043 12550,5048C12550,5053 12503,5104 12445,5161C12327,5277 12331,5264 12380,5374L12411,5443L12518,5436C12577,5432 12646,5427 12671,5423L12717,5418L12739,5506C12751,5555 12763,5602 12765,5611C12769,5622 12738,5640 12638,5684C12565,5716 12501,5746 12496,5750C12491,5755 12493,5799 12500,5854L12513,5950L12554,5961C12576,5968 12640,5985 12695,6000L12795,6027L12792,6126C12790,6181 12785,6228 12782,6232C12778,6235 12710,6244 12630,6252L12485,6265L12462,6355C12450,6405 12442,6450 12444,6457C12447,6463 12497,6502 12557,6542C12616,6582 12669,6618 12674,6622C12682,6627 12620,6789 12601,6812C12598,6816 12530,6803 12451,6784C12372,6765 12306,6751 12305,6752C12283,6782 12200,6911 12200,6916C12200,6919 12238,6973 12285,7034C12332,7096 12370,7150 12370,7155C12370,7160 12338,7197 12299,7236L12228,7308L12116,7236C12055,7196 12000,7161 11993,7157C11985,7152 11887,7218 11831,7266C11829,7268 11846,7331 11869,7405C11893,7479 11909,7544 11905,7550C11898,7561 11746,7640 11731,7640C11726,7640 11685,7591 11639,7530C11544,7406 11563,7412 11430,7461L11355,7488L11352,7629L11349,7769L11317,7774C11226,7789 11154,7797 11149,7794C11145,7792 11123,7734 11099,7665L11055,7540L10950,7542L10845,7545L10800,7667C10775,7734 10752,7791 10750,7793C10747,7795 10699,7787 10643,7777ZM11162,6995C11591,6906 11905,6597 11996,6177C12017,6079 12017,5878 11995,5775C11922,5428 11694,5144 11381,5009C11233,4946 11136,4926 10970,4926C10804,4926 10707,4946 10559,5009C10085,5213 9833,5746 9971,6251C10002,6366 10089,6533 10167,6630C10320,6818 10560,6960 10794,6999C10881,7014 11083,7011 11162,6995Z" style="fill:rgb(255,233,157);fill-rule:nonzero;"/>
                </g>
                <g transform="matrix(0.0144476,0.00749463,0.00749463,-0.0144476,109.731,309.72)">
                    <path d="M10825,6875C10558,6832 10310,6658 10176,6417C10098,6277 10052,6070 10064,5915C10096,5512 10360,5193 10747,5088C10860,5058 11082,5058 11195,5088C11284,5113 11416,5173 11486,5220C11763,5411 11923,5757 11881,6077C11852,6297 11766,6467 11605,6625C11506,6722 11394,6791 11263,6836C11106,6889 10980,6900 10825,6875ZM11113,6350C11389,6246 11460,5865 11239,5666C11001,5452 10618,5582 10560,5898C10524,6099 10667,6319 10867,6370C10926,6384 11048,6375 11113,6350Z" style="fill:rgb(255,233,157);fill-rule:nonzero;"/>
                </g>
            </g>
            <g transform="matrix(0.013114,0.00127727,0.00133884,-0.0137462,319.678,383.351)">
                <path d="M1495,7781L1405,7764L1399,7482L1310,7451C1261,7434 1217,7420 1211,7420C1206,7420 1165,7467 1120,7525C1075,7584 1035,7630 1031,7628C986,7609 850,7524 850,7515C850,7509 868,7453 890,7391C912,7330 930,7273 930,7266C930,7253 792,7140 777,7140C774,7140 721,7172 660,7210C599,7249 548,7280 546,7280C544,7280 510,7244 470,7200L398,7120L437,7073C459,7046 498,6997 524,6963L571,6900L519,6823C490,6780 466,6743 464,6741C461,6738 253,6782 209,6796C196,6799 183,6778 151,6698C129,6642 114,6594 118,6591C123,6588 174,6554 233,6516C353,6439 345,6460 311,6320L295,6255L21,6227L16,6186C13,6164 8,6115 5,6079L-1,6012L32,6002C50,5996 110,5979 165,5964C220,5949 268,5934 271,5931C275,5928 280,5885 284,5835L290,5745L183,5696C123,5669 65,5641 54,5634L32,5621L60,5523L87,5425L136,5425C163,5426 228,5428 280,5430L375,5434L412,5350L448,5265L343,5165L237,5064L295,4980C327,4933 355,4893 357,4891C359,4889 419,4912 492,4943L624,5000L648,4977C661,4965 690,4934 711,4908L751,4861L686,4731L620,4601L705,4535L790,4468L900,4569L1009,4669L1089,4624C1134,4598 1170,4574 1170,4568C1170,4563 1161,4497 1149,4423C1138,4348 1132,4284 1137,4280C1141,4276 1187,4259 1238,4243L1330,4213L1381,4304C1410,4354 1443,4413 1456,4436L1479,4476L1567,4461C1615,4453 1656,4446 1658,4445C1659,4443 1673,4378 1689,4299L1717,4155L1823,4152L1928,4149L1939,4202C1945,4231 1958,4297 1968,4349C1988,4457 1984,4453 2109,4465L2175,4472L2243,4346C2281,4277 2315,4218 2319,4216C2323,4213 2370,4227 2423,4247C2509,4278 2519,4285 2515,4304C2513,4315 2504,4370 2495,4425C2487,4480 2478,4537 2475,4552C2470,4583 2473,4585 2566,4636L2637,4674L2731,4590C2783,4544 2835,4497 2847,4487C2868,4468 2869,4469 2947,4530C2990,4565 3026,4596 3028,4600C3029,4603 2999,4665 2960,4735C2921,4806 2891,4867 2892,4871C2894,4874 2923,4907 2957,4944L3019,5012L3127,4964C3186,4938 3250,4911 3267,4904L3300,4890L3355,4972C3385,5018 3410,5060 3410,5067C3410,5073 3395,5090 3378,5105C3360,5120 3310,5166 3268,5206L3191,5279L3231,5365L3272,5452L3424,5445L3577,5437L3602,5538L3627,5638L3491,5698L3355,5757L3358,5851C3360,5903 3363,5946 3365,5948C3367,5950 3431,5970 3509,5994C3586,6017 3652,6038 3655,6041C3660,6047 3643,6231 3636,6238C3634,6240 3567,6248 3489,6257C3410,6265 3344,6274 3342,6275C3340,6277 3329,6319 3316,6369C3290,6476 3278,6456 3432,6559L3539,6630L3523,6667C3481,6769 3449,6821 3432,6816C3423,6813 3366,6799 3305,6785C3245,6771 3188,6757 3180,6755C3170,6752 3148,6777 3112,6835L3059,6919L3144,7035C3192,7098 3230,7153 3230,7157C3230,7161 3198,7197 3159,7236L3088,7308L2968,7229L2847,7151L2806,7180C2784,7197 2748,7225 2726,7243L2688,7275L2729,7406C2752,7477 2770,7540 2770,7546C2770,7560 2595,7644 2582,7636C2576,7633 2535,7582 2490,7525L2410,7420L2314,7455C2261,7474 2216,7490 2214,7490C2212,7490 2209,7554 2208,7633L2205,7775L2106,7787C2051,7794 2005,7798 2002,7796C2000,7793 1979,7736 1955,7668L1912,7545L1809,7542L1705,7539L1659,7667C1631,7744 1607,7796 1599,7796C1591,7797 1545,7790 1495,7781ZM2093,6981C2266,6936 2416,6851 2553,6721C2596,6680 2636,6638 2640,6629C2648,6615 2619,6595 2453,6500L2257,6387L2196,6420C2163,6439 2099,6475 2055,6500L1975,6546L1972,6773L1970,7000L1993,7000C2006,7000 2051,6991 2093,6981ZM1698,6769L1695,6548L1556,6469C1480,6425 1412,6390 1405,6392C1376,6399 1030,6606 1030,6616C1030,6639 1170,6777 1245,6829C1376,6920 1552,6988 1658,6989L1700,6990L1698,6769ZM1081,6273L1270,6165L1270,5815L1148,5743C1080,5704 990,5652 948,5626L871,5581L846,5658C778,5874 780,6085 851,6316C862,6351 876,6380 882,6380C888,6380 977,6332 1081,6273ZM2809,6325C2866,6173 2885,5959 2855,5801C2835,5698 2802,5590 2790,5590C2785,5590 2695,5640 2590,5701L2400,5812L2400,6166L2583,6272C2683,6331 2770,6379 2777,6380C2783,6380 2798,6355 2809,6325ZM1930,6253C2089,6202 2172,6005 2099,5850C2033,5710 1889,5643 1745,5685C1699,5698 1675,5713 1630,5758C1563,5825 1540,5882 1540,5980C1540,6181 1733,6317 1930,6253ZM1547,5482L1695,5394L1698,5166L1700,4938L1658,4945C1530,4965 1366,5032 1245,5113C1184,5154 1000,5332 1000,5349C1000,5354 1008,5361 1018,5364C1027,5367 1112,5415 1205,5470C1299,5525 1380,5570 1387,5570C1393,5570 1465,5530 1547,5482ZM2478,5460C2578,5403 2660,5351 2660,5345C2660,5328 2522,5189 2453,5137C2334,5046 2148,4964 2017,4945L1970,4938L1970,5395L2118,5482C2199,5530 2272,5568 2280,5567C2289,5566 2378,5518 2478,5460Z" style="fill:rgb(255,233,157);fill-rule:nonzero;"/>
            </g>
            <g transform="matrix(0.00438818,0,0,-0.00438818,316.31,371.041)">
                <path d="M4716,8448C4641,8257 4554,8020 4465,7768L4367,7490L4245,7490C4014,7490 3662,7443 3457,7384C3387,7364 3328,7349 3326,7351C3325,7353 3290,7402 3249,7460C3109,7660 2679,8250 2674,8250C2664,8250 2493,8182 2455,8162C2433,8151 2381,8126 2340,8106C2299,8087 2220,8045 2165,8012C2110,7980 2017,7925 1958,7890C1853,7828 1708,7724 1616,7645L1570,7604L1690,7345C1757,7202 1861,6978 1922,6847L2033,6609L1957,6532C1761,6332 1524,6021 1444,5857C1428,5825 1412,5800 1407,5800C1403,5800 1261,5824 1092,5854C763,5912 319,5983 315,5978C307,5970 212,5730 175,5625C124,5479 40,5067 5,4785L-1,4735L1015,4345L1017,4250C1021,4079 1040,3869 1061,3761C1072,3703 1088,3620 1096,3578C1104,3535 1122,3462 1135,3415C1149,3368 1160,3323 1160,3315C1160,3308 1067,3235 953,3154C838,3073 640,2930 512,2836C304,2684 280,2663 285,2643C307,2555 501,2179 631,1971C705,1855 854,1641 895,1593L925,1559L1100,1640C1272,1721 1836,1979 1896,2005L1926,2019L2061,1894C2230,1736 2314,1673 2543,1533C2681,1449 2725,1417 2723,1403C2722,1393 2701,1261 2676,1110C2632,844 2560,362 2560,337C2560,330 2575,319 2593,311C2818,221 3019,159 3308,91C3501,45 3781,-3 3791,8C3809,28 4052,667 4146,937L4184,1050L4336,1050C4598,1050 4783,1076 5048,1152C5170,1186 5194,1190 5205,1179C5212,1171 5358,967 5530,725C5702,483 5844,283 5846,282C5849,278 5937,319 6207,452C6319,507 6450,582 6552,649C6697,745 6883,882 6933,930C6951,946 6948,955 6852,1171C6797,1294 6693,1521 6622,1675L6492,1954L6609,2080C6769,2250 6914,2448 7014,2632C7039,2680 7064,2721 7068,2723C7072,2725 7163,2712 7270,2694C7829,2600 8153,2549 8164,2553C8186,2562 8342,3006 8385,3180C8393,3216 8405,3255 8410,3267C8419,3288 8483,3649 8494,3742L8500,3789L8452,3810C8390,3838 7972,3996 7688,4100L7460,4183L7460,4339C7460,4518 7450,4620 7419,4787C7401,4886 7352,5101 7334,5162C7330,5174 7378,5213 7522,5316C7739,5471 8217,5827 8225,5841C8232,5852 8164,6012 8082,6175C7966,6408 7816,6643 7658,6842L7581,6939L7448,6881C7264,6800 6968,6664 6761,6564L6588,6480L6454,6607C6312,6741 6140,6875 6025,6943C5965,6978 5842,7059 5817,7080C5813,7084 5828,7203 5850,7346C5962,8060 5981,8182 5978,8185C5976,8186 5905,8214 5820,8247C5640,8317 5421,8390 5389,8390C5377,8390 5342,8399 5311,8409C5231,8437 4823,8519 4765,8520C4749,8520 4739,8504 4716,8448ZM4535,5825C4811,5776 5099,5641 5307,5462C5553,5250 5767,4863 5825,4526C5847,4399 5845,4179 5821,4038C5777,3783 5667,3513 5536,3340C5305,3033 4905,2792 4516,2725C4402,2706 4182,2706 4062,2725C3834,2762 3576,2855 3416,2958C3060,3188 2796,3583 2714,4010C2690,4137 2690,4368 2714,4505C2804,5014 3043,5367 3475,5631C3589,5701 3768,5773 3905,5806C4098,5852 4344,5859 4535,5825Z" style="fill:rgb(255,233,157);fill-rule:nonzero;"/>
                <path d="M4175,5623C3960,5598 3838,5561 3660,5469C3310,5288 3101,5025 2995,4631C2945,4447 2937,4390 2936,4240C2936,4098 2952,3988 2991,3869C3015,3795 3100,3610 3110,3610C3113,3610 3144,3568 3177,3518C3325,3295 3532,3129 3786,3030C4292,2832 4823,2936 5223,3310C5403,3478 5551,3746 5601,3992C5670,4335 5613,4656 5428,4966C5229,5301 4969,5490 4570,5589C4436,5622 4278,5636 4175,5623ZM4520,5249C4832,5171 5052,4988 5201,4684C5269,4543 5284,4470 5284,4275C5284,4076 5269,4005 5194,3851C5139,3736 5082,3655 4999,3572C4709,3287 4372,3204 3975,3320C3717,3395 3513,3573 3380,3839C3253,4093 3241,4412 3347,4655C3452,4891 3636,5079 3872,5190C4089,5292 4280,5309 4520,5249Z" style="fill:rgb(255,233,157);fill-rule:nonzero;"/>
            </g>
        </g>
        <g id="path21" transform="matrix(1,0,0,1,-10,-13)">
            <path d="M255,382.886C255,384.64 253.621,386.084 251.868,386.165C246.256,386.417 241.288,387.157 240.305,388.342C237.906,391.232 239.341,393.237 245.711,395.899C249.835,397.622 250.863,398.825 250.483,401.486L250.483,401.486C249.938,405.312 247.954,405.827 239.88,404.238C229.833,402.26 227.39,398.909 219.053,375.658C215.519,365.804 213.376,361.452 213.328,364.033C213.285,366.302 212.849,368.158 212.36,368.158C211.87,368.158 204.65,361.725 196.316,353.863C187.981,346 179.55,339.163 177.579,338.668C172.247,337.33 169.366,341.219 168.569,350.832C167.73,360.949 165.306,361.61 161.353,352.801C157.646,344.543 157.587,318.273 161.253,308.472C164.152,300.719 161.892,301.538 157.698,309.76C156.043,313.004 153.932,315.658 153.006,315.658C150.581,315.658 152.553,299.065 156.331,287.686L159.392,278.465L156.432,266.686C151.724,247.952 149.713,227.05 150.765,207.781C152.003,185.098 154.184,177.783 159.74,177.681C160.422,177.668 195.601,210.081 198.78,212.037L204.561,215.594L222.03,213.124C231.172,211.832 240.03,211.072 248.878,210.846C250.488,210.811 252.045,211.426 253.196,212.553C254.348,213.679 254.997,215.222 254.997,216.833C255,244.925 255,362.018 255,382.886ZM216.664,321.519C229.438,327.842 244.414,323.421 233.794,316.462C231.122,314.712 229.17,314.533 225.186,315.676C214.863,318.636 204.25,311.339 204.25,301.28C204.25,298.545 203.294,295.767 202.126,295.107C200.958,294.447 197.827,291.208 195.167,287.908C195.167,287.908 193.761,286.163 192.465,284.556C192.205,284.233 191.762,284.125 191.383,284.293C191.004,284.46 190.785,284.86 190.848,285.269C191.035,286.485 191.201,287.565 191.201,287.565C193.182,300.433 204.466,315.481 216.664,321.519ZM164.126,248.657L164.126,248.657C165.733,252.583 167.114,251.59 175.002,240.844L182.022,231.28L173.725,215.344C169.161,206.579 164.881,199.745 164.214,200.158C162.684,201.103 162.605,244.942 164.126,248.657Z" style="fill:rgb(255,233,157);fill-rule:nonzero;"/>
        </g>
    </g>
</svg>
