<?xml version="1.0" encoding="UTF-8" standalone="no"?>
<!DOCTYPE svg PUBLIC "-//W3C//DTD SVG 1.1//EN" "http://www.w3.org/Graphics/SVG/1.1/DTD/svg11.dtd">
<svg width="100%" height="100%" viewBox="0 0 512 512" version="1.1" xmlns="http://www.w3.org/2000/svg" xmlns:xlink="http://www.w3.org/1999/xlink" xml:space="preserve" xmlns:serif="http://www.serif.com/" style="fill-rule:evenodd;clip-rule:evenodd;stroke-linejoin:round;stroke-miterlimit:2;">
    <g transform="matrix(1,0,0,0.994175,-1,-0.994175)">
        <path d="M513,25.028C513,18.656 510.483,12.544 506.003,8.038C501.523,3.532 495.447,1 489.112,1L24.888,1C18.553,1 12.477,3.532 7.997,8.038C3.517,12.544 1,18.656 1,25.028L1,491.972C1,498.344 3.517,504.456 7.997,508.962C12.477,513.468 18.553,516 24.888,516L489.112,516C495.447,516 501.523,513.468 506.003,508.962C510.483,504.456 513,498.344 513,491.972L513,25.028Z"/>
    </g>
    <g transform="matrix(1.00666,0,0,1.00666,-0.510043,-3.92416)">
        <g transform="matrix(1.68284,0,0,1.68284,-176.692,-232.608)">
            <path id="path21" d="M255,382.906C255,384.649 253.629,386.084 251.888,386.164C246.268,386.415 241.289,387.156 240.305,388.342C237.906,391.232 239.341,393.237 245.711,395.899C249.835,397.622 250.863,398.825 250.483,401.486L250.483,401.486C249.938,405.312 247.954,405.827 239.88,404.238C229.833,402.26 227.39,398.909 219.053,375.658C215.519,365.804 213.376,361.452 213.328,364.033C213.285,366.302 212.849,368.158 212.36,368.158C211.87,368.158 204.65,361.725 196.316,353.863C187.981,346 179.55,339.163 177.579,338.668C172.247,337.33 169.366,341.219 168.569,350.832C167.73,360.949 165.306,361.61 161.353,352.801C157.646,344.543 157.587,318.273 161.253,308.472C164.152,300.719 161.892,301.538 157.698,309.76C156.043,313.004 153.932,315.658 153.006,315.658C150.581,315.658 152.553,299.065 156.331,287.686L159.392,278.465L156.432,266.686C151.724,247.952 149.713,227.05 150.765,207.781C152.003,185.098 154.184,177.783 159.74,177.681C160.422,177.668 195.601,210.081 198.78,212.037L204.561,215.594L222.03,213.124C231.186,211.83 240.057,211.07 248.919,210.845C250.519,210.81 252.065,211.422 253.209,212.541C254.352,213.66 254.997,215.192 254.997,216.792C255,244.821 255,362.086 255,382.906ZM216.664,321.519C229.438,327.842 244.414,323.421 233.794,316.462C231.122,314.712 229.17,314.533 225.186,315.676C214.863,318.636 204.25,311.339 204.25,301.28C204.25,298.545 203.294,295.767 202.126,295.107C200.958,294.447 197.827,291.208 195.167,287.908C195.167,287.908 193.751,286.15 192.451,284.538C192.193,284.218 191.752,284.111 191.376,284.277C191,284.443 190.782,284.84 190.845,285.247C191.033,286.472 191.201,287.565 191.201,287.565C193.182,300.433 204.466,315.481 216.664,321.519ZM164.126,248.657L164.126,248.657C165.733,252.583 167.114,251.59 175.002,240.844L182.022,231.28L173.725,215.344C169.161,206.579 164.881,199.745 164.214,200.158C162.684,201.103 162.605,244.942 164.126,248.657Z" style="fill:rgb(255,233,157);fill-rule:nonzero;"/>
        </g>
        <g transform="matrix(5.91274,5.91274,-5.91274,5.91274,314.865,253.31)">
            <path d="M4.504,13.572L2.999,12.083C5.2,9.278 8.412,7.5 12,7.5C15.588,7.5 18.8,9.279 21,12.083L19.496,13.572C17.661,11.234 14.984,9.75 12,9.75C9.016,9.75 6.339,11.234 4.504,13.572ZM12,14.25C13.791,14.25 15.397,15.141 16.498,16.543L18,15.055C16.533,13.186 14.392,12 12,12C9.608,12 7.467,13.186 6,15.055L7.502,16.543C8.603,15.141 10.209,14.25 12,14.25ZM12,16.5C10.804,16.5 9.742,17.102 9.01,18.036L12,21L14.99,18.037C14.258,17.102 13.196,16.5 12,16.5ZM12,5.25C16.179,5.25 19.927,7.328 22.495,10.601L24,9.11C21.065,5.371 16.783,3 12,3C7.217,3 2.935,5.371 -0,9.11L1.505,10.601C4.073,7.328 7.821,5.25 12,5.25Z" style="fill:rgb(255,233,157);fill-rule:nonzero;"/>
        </g>
        <g transform="matrix(6.94959,0,0,6.94959,251.068,122.794)">
            <path d="M13,9L22,9L8,24L11,15L2,15L16,0L13,9ZM4.301,14L12.387,14L10.4,19.963L19.699,10L11.613,10L13.6,4.037L4.301,14Z" style="fill:rgb(255,233,157);"/>
        </g>
    </g>
</svg>
